<?xml version="1.0" encoding="utf-8"?>
<!-- Generator: Adobe Illustrator 22.1.0, SVG Export Plug-In . SVG Version: 6.00 Build 0)  -->
<svg version="1.1" id="Layer_1" xmlns="http://www.w3.org/2000/svg" xmlns:xlink="http://www.w3.org/1999/xlink" x="0px" y="0px"
	 viewBox="0 0 151 55" style="enable-background:new 0 0 151 55;" xml:space="preserve">
<style type="text/css">
	.st0{fill:#FFFFFF;}
</style>
<g id="Symbols">
	<g id="Footer" transform="translate(-15.000000, -60.000000)">
		<g id="habitat-logo-by-chef-white" transform="translate(15.000000, 60.000000)">
			<g id="Logotype" transform="translate(0.000000, 32.160584)">
				<path id="Shape_2_" class="st0" d="M65-1.1c-4.1,0-7-2.8-7-6.9s2.8-6.9,7-7c4,0,6.9,2.7,7,6.6c0,2.2-0.6,4-1.9,5.3
					C68.8-1.8,67.1-1.2,65-1.1L65-1.1L65-1.1z M72.1-16.1c-2-1.7-4.8-2.6-7.6-2.3c-2.1,0.2-4.1,1-5.6,2.3C58.5-15.8,58-16,58-16.5
					v-9c0-0.3-0.3-0.6-0.6-0.6H55c-0.3,0-0.5,0.2-0.6,0.5c0,0.1,0,0.2,0,0.3c0,0.2,0,0.4,0,0.6v2.1c0,4.7,0,9.5,0,14.2
					c0,0.8,0,1.7,0.2,2.6c1.1,5.2,4.9,8.1,10.5,8.1c0.1,0,0.2,0,0.3,0c4.5-0.1,8.1-2.6,9.6-6.5C76.6-8.5,75.4-13.2,72.1-16.1
					L72.1-16.1z"/>
				<path id="Shape_3_" class="st0" d="M48.1-8.2c0,2-0.7,3.8-1.9,5c-1.3,1.3-3,2-5,2l0,0c-4.1,0-6.9-2.8-7-6.8c0-4.2,2.8-7,6.9-7.1
					l0,0C45.1-15,48.1-12.1,48.1-8.2 M49.5-14.7c-3.1-3.8-8.9-4.9-13.6-2.6c-4.3,2.1-6.4,7-5.2,11.9c1,3.9,3.5,6.4,7.2,7.4
					C39,2.3,40,2.4,41,2.4c2.6,0,4.9-1,6.7-2.9c0.2-0.3,0.4-0.5,0.6-0.8v2.5c0,0.3,0.3,0.6,0.6,0.6h2.2c0.3,0,0.6-0.3,0.6-0.6l0,0
					c0-1.1,0-2.2,0-3.2c0-2.5,0-5.2-0.1-7.8C51.5-11.4,50.8-13.1,49.5-14.7"/>
				<path id="Shape_4_" class="st0" d="M120.6-8.2c0,2-0.7,3.8-1.9,5c-1.3,1.3-3,2-5,2l0,0c-4.1,0-6.9-2.8-7-6.8
					c0-4.2,2.8-7,6.9-7.1l0,0C117.7-15,120.6-12.1,120.6-8.2 M122-14.7c-3.1-3.8-8.9-4.9-13.6-2.6c-4.3,2.1-6.4,7-5.2,11.9
					c1,3.9,3.4,6.4,7.2,7.4c1.1,0.3,2.1,0.4,3.1,0.4c2.6,0,4.9-1,6.7-2.9c0.2-0.2,0.4-0.5,0.6-0.8v2.5c0,0.3,0.3,0.6,0.6,0.6h2.2
					c0.3,0,0.6-0.3,0.6-0.6l0,0c0-1.1,0-2.2,0-3.2c0-2.5,0-5.2-0.1-7.8C124-11.4,123.3-13.1,122-14.7"/>
				<path id="Shape_5_" class="st0" d="M20.9-18.3c-3-0.5-5.5,0.1-7.5,1.8c-0.4,0.3-0.9,0.1-0.9-0.4v-8.6c0-0.3-0.3-0.6-0.6-0.6H9.5
					c-0.3,0-0.6,0.3-0.6,0.6V1.4C8.9,1.7,9.2,2,9.5,2h2.4c0.3,0,0.6-0.2,0.6-0.6c0-1,0-3,0-3.8c0-2,0-4,0-6.1s0.6-3.8,1.8-4.9
					s2.9-1.6,5-1.5c3.1,0.2,5.2,2.2,5.4,5.2c0.1,2.2,0.2,4.5,0.2,6.7c0,1,0,2,0,3c0,0.3,0,0.6,0,0.9v0.4c0,0.3,0.3,0.6,0.6,0.6h2.4
					c0.3,0,0.6-0.3,0.6-0.6c0-1.1,0-2.2,0-3.3c0-2.4,0-4.9,0-7.3C28.4-14.2,25.6-17.6,20.9-18.3"/>
				<path id="Shape_6_" class="st0" d="M100.7-6.5h-2.8c-0.3,0-0.5,0.2-0.6,0.5v0.4c0,0.3,0,0.6-0.1,0.8c-0.2,2.2-1.5,3.5-3.8,3.6
					c-1.6,0.1-4.3-0.2-4.5-3.1c-0.2-2.4-0.2-4.9-0.2-7.3c0-0.8,0-1.6,0-2.4c0-0.3,0.2-0.6,0.6-0.6h7.1c0.5,0,0.8-0.6,0.4-1L94.1-18
					c-0.1,0-0.2,0-0.3,0h-4.5c-0.3,0-0.6-0.3-0.6-0.6v-3.7c0-0.3-0.3-0.6-0.6-0.6h-2.3c-0.3,0-0.6,0.3-0.6,0.6v1.1
					c0,0.1-0.1,10.7,0,17.3c0,1.6,0.8,3.1,2.2,4.4c1.7,1.5,3.7,1.9,5.5,1.9c0.5,0,0.9,0,1.3-0.1c2.1-0.2,3.9-1.2,5.2-2.9
					c1.2-1.6,1.6-3.6,1.2-5.5L100.7-6.5L100.7-6.5z"/>
				<path id="Shape_7_" class="st0" d="M141.9-6l-0.1-0.5h-2.9c-0.3,0-0.5,0.2-0.6,0.5v0.4c0,0.3,0,0.5-0.1,0.7
					c-0.1,2.2-1.5,3.5-3.7,3.7c-1.6,0.1-4.3-0.2-4.5-3.1c-0.2-2.5-0.2-5-0.2-7.5c0-0.7,0-1.5,0-2.2c0-0.3,0.2-0.6,0.6-0.6h7
					c0.5,0,0.8-0.7,0.3-1l-3-2.3c-0.1-0.1-0.2-0.1-0.3-0.1h-4.1c-0.3,0-0.6-0.3-0.6-0.6v-3.6c0-0.3-0.3-0.6-0.6-0.6h-2.4
					c-0.3,0-0.6,0.3-0.6,0.6v1.1c0,0.1,0,10.6,0.1,17.1c0.1,2.9,2.2,5.3,5.3,6c0.8,0.2,1.7,0.3,2.8,0.3c0.2,0,0.3,0,0.5,0
					c2.1-0.1,4.1-0.9,5.4-2.5C141.7-1.8,142.2-3.9,141.9-6"/>
				<path id="Shape_8_" class="st0" d="M78.9,1.8h2.4c0.3,0,0.6-0.3,0.6-0.6v-18.6c0-0.3-0.2-0.6-0.6-0.6h-2.4
					c-0.3,0-0.6,0.2-0.6,0.6V1.3C78.3,1.5,78.6,1.8,78.9,1.8"/>
				<path id="Shape_9_" class="st0" d="M78.9-20.4h2.4c0.3,0,0.6-0.3,0.6-0.6v-2.4c0-0.3-0.3-0.6-0.6-0.6h-2.4
					c-0.3,0-0.6,0.3-0.6,0.6v2.4C78.3-20.6,78.6-20.4,78.9-20.4"/>
				<path id="Shape_10_" class="st0" d="M142,10.3l-0.2,0.4l-0.2-0.4h-0.1v0.6h0.1v-0.5l0.2,0.4l0,0l0.2-0.4v0.5h0.1L142,10.3
					L142,10.3L142,10.3z M140.8,10.3L140.8,10.3l0.2,0.1V11h0.1v-0.6h0.2v-0.1H140.8L140.8,10.3z"/>
				<g id="BY-CHEF" transform="translate(94.000000, 36.000000)">
					<path id="Shape_11_" class="st0" d="M18.4-22.5L18.4-22.5c0-1.8,1.4-3.3,3.3-3.3c1.2,0,1.9,0.4,2.5,1l-0.9,1
						c-0.5-0.4-1-0.7-1.6-0.7c-1.1,0-1.9,0.9-1.9,2l0,0c0,1.1,0.8,2,1.9,2c0.7,0,1.2-0.3,1.7-0.8l0.9,0.9c-0.7,0.7-1.4,1.1-2.6,1.1
						C19.8-19.2,18.4-20.7,18.4-22.5"/>
					<polygon id="Shape_12_" class="st0" points="26.1,-25.7 27.6,-25.7 27.6,-23.2 30.2,-23.2 30.2,-25.7 31.6,-25.7 31.6,-19.3 
						30.2,-19.3 30.2,-21.9 27.6,-21.9 27.6,-19.3 26.1,-19.3 					"/>
					<polygon id="Shape_13_" class="st0" points="33.8,-25.7 38.7,-25.7 38.7,-24.5 35.3,-24.5 35.3,-23.1 38.3,-23.1 38.3,-21.9 
						35.3,-21.9 35.3,-20.5 38.8,-20.5 38.8,-19.2 33.8,-19.2 					"/>
					<polygon id="Shape_14_" class="st0" points="40.8,-25.7 45.7,-25.7 45.7,-24.5 42.3,-24.5 42.3,-23.1 45.3,-23.1 45.3,-21.8 
						42.3,-21.8 42.3,-19.3 40.8,-19.3 					"/>
					<path id="Shape_15_" class="st0" d="M14.1-19.2v-1.6l1.4-2.1h-0.8l-0.9,1.5l0,0l-0.9-1.5H12l1.4,2.1v1.5L14.1-19.2L14.1-19.2z
						 M10.7-22.2c0.3,0,0.4,0.2,0.4,0.4c0,0.2-0.1,0.4-0.4,0.4h-1v-0.8H10.7L10.7-22.2z M10.8-20.8c0.3,0,0.5,0.2,0.5,0.4
						c0,0.2-0.1,0.4-0.5,0.4H9.7v-0.9h1.1C10.8-20.9,10.8-20.8,10.8-20.8z M10.9-19.2c0.7,0,1.1-0.4,1.1-1c0-0.4-0.2-0.8-0.6-0.9
						l0,0c0.3-0.2,0.5-0.4,0.5-0.8c0-0.6-0.4-1-1.1-1H9v3.7H10.9L10.9-19.2z"/>
				</g>
			</g>
		</g>
	</g>
</g>
</svg>
