<?xml version="1.0" encoding="utf-8"?>
<!-- Generator: Adobe Illustrator 22.1.0, SVG Export Plug-In . SVG Version: 6.00 Build 0)  -->
<svg version="1.1" id="Layer_1" xmlns="http://www.w3.org/2000/svg" xmlns:xlink="http://www.w3.org/1999/xlink" x="0px" y="0px"
	 viewBox="0 0 494 116" style="enable-background:new 0 0 494 116;" xml:space="preserve">
<style type="text/css">
	.st0{fill:#DDC7AE;}
	.st1{fill-opacity:0.1;}
	.st2{fill:none;stroke:#DEBFA5;}
	.st3{fill:#A2BD7C;}
	.st4{fill:#FFE9D1;}
	.st5{fill:#FFFFFF;}
	.st6{fill:#837365;}
	.st7{fill:none;stroke:#827365;stroke-linecap:round;stroke-linejoin:round;}
	.st8{fill:#827365;}
	.st9{filter:url(#Adobe_OpacityMaskFilter);}
	.st10{mask:url(#image-cat-set-b_1_);fill-opacity:0.1;}
	.st11{fill:#FF9012;}
	.st12{fill:#FFE48F;}
	.st13{fill:#B9DA8D;}
	.st14{fill:#CAD3D9;}
	.st15{fill:#DEBFA5;}
	.st16{fill:#E8F0F6;}
	.st17{fill:#87B09A;}
	.st18{fill:#799987;}
	.st19{filter:url(#image-cat-set-c);}
	.st20{filter:url(#image-cat-set-e);}
	.st21{filter:url(#Adobe_OpacityMaskFilter_1_);}
	.st22{mask:url(#image-cat-set-h_1_);fill:#E2F0F7;}
	.st23{fill:#E2F0F7;}
	.st24{fill:#F3FCFF;}
	.st25{filter:url(#Adobe_OpacityMaskFilter_2_);}
	.st26{mask:url(#image-cat-set-j_1_);fill:#F3FCFF;}
	.st27{fill:#847264;}
	.st28{fill:#685A50;}
	.st29{fill:none;}
	.st30{fill:#9B8676;}
	.st31{fill:#AAE655;}
	.st32{fill:#BFEC80;}
	.st33{fill:#759684;}
	.st34{opacity:0.5;}
	.st35{filter:url(#Adobe_OpacityMaskFilter_3_);}
	.st36{mask:url(#image-cat-set-l_1_);fill:#F3FCFF;}
</style>
<filter  filterUnits="objectBoundingBox" height="632%" id="image-cat-set-e" width="625.3%" x="-262.6%" y="-266%">
	<feOffset  in="SourceAlpha" result="shadowOffsetOuter1"></feOffset>
	<feGaussianBlur  in="shadowOffsetOuter1" result="shadowBlurOuter1" stdDeviation="3.5"></feGaussianBlur>
	<feColorMatrix  in="shadowBlurOuter1" values="0 0 0 0 0.725490196   0 0 0 0 0.854901961   0 0 0 0 0.552941176  0 0 0 1 0">
		</feColorMatrix>
</filter>
<filter  filterUnits="objectBoundingBox" height="632%" id="image-cat-set-c" width="625.3%" x="-262.6%" y="-266%">
	<feOffset  in="SourceAlpha" result="shadowOffsetOuter1"></feOffset>
	<feGaussianBlur  in="shadowOffsetOuter1" result="shadowBlurOuter1" stdDeviation="3.5"></feGaussianBlur>
	<feColorMatrix  in="shadowBlurOuter1" values="0 0 0 0 0.725490196   0 0 0 0 0.854901961   0 0 0 0 0.552941176  0 0 0 1 0">
		</feColorMatrix>
</filter>
<g transform="translate(-.57 -2.702)">
	<g transform="translate(353)">
		<path class="st0" d="M31,100.3L31,100.3c-2.2,0-4-1.8-4-4V81.6h8v14.8C35,98.5,33.2,100.3,31,100.3z"/>
		<rect x="27" y="87.6" class="st1" width="8" height="3"/>
		<path class="st2" d="M56.9,8.6c-8.3,1.2-11.3,10.8-11.3,15.2"/>
		<path class="st0" d="M59,100.3L59,100.3c-2.2,0-4-1.8-4-4V81.6h8v14.8C63,98.5,61.2,100.3,59,100.3z"/>
		<path class="st0" d="M3.9,45.6c1.7-1.4,4.2-1.2,5.6,0.5L19,57.3l-6.1,5.1L3.4,51.2C2,49.5,2.2,47,3.9,45.6z"/>
		<path class="st0" d="M18,22.6h66.5c3.3,0,6,2.7,6,6v53.3c0,3.3-2.7,6-6,6H18c-3.3,0-6-2.7-6-6V28.6C12,25.2,14.7,22.6,18,22.6z"/>
		<path class="st3" d="M18,69.6h72.5v12.7l0,0c0,3.3-2.7,6-6,6H18l0,0c-3.3,0-6-2.7-6-6v-6.7l0,0C12,72.2,14.7,69.6,18,69.6z"/>
		<path class="st4" d="M16,25.6h55.9c2.2,0,4,1.8,4,4v53.8c0,2.2-1.8,4-4,4H16c-2.2,0-4-1.8-4-4V29.6C12,27.3,13.8,25.6,16,25.6z"/>
		<path class="st5" d="M44.2,43.7L44.2,43.7L44.2,43.7c7.1,0,12.8,5.7,12.8,12.8v13.1H31.4V56.5l0,0C31.4,49.4,37.1,43.7,44.2,43.7z
			"/>
		<ellipse class="st6" cx="28.7" cy="41.3" rx="1.7" ry="1.7"/>
		<ellipse class="st6" cx="58.7" cy="41.3" rx="1.7" ry="1.7"/>
		<path class="st6" d="M47.4,49.6l-1,0.8c-1.4,1.2-4,1.3-5.8,0.4c-0.2-0.1-0.3-0.2-0.5-0.4l-1-0.8c-0.3-0.3-0.3-0.6,0.1-0.9
			c0.2-0.1,0.4-0.1,0.6-0.1h6.8c0.5,0,0.9,0.3,0.9,0.6C47.6,49.3,47.5,49.5,47.4,49.6z M45.1,43.6l-0.4,0.5
			c-0.6,0.8-1.8,0.9-2.5,0.2c-0.1-0.1-0.2-0.1-0.2-0.2l-0.4-0.5c-0.1-0.2-0.1-0.4,0-0.6c0.1-0.1,0.2-0.1,0.3-0.1h3
			c0.2,0,0.4,0.2,0.4,0.4C45.2,43.4,45.2,43.5,45.1,43.6z"/>
		<path class="st7" d="M14,49.6h3 M70.2,49.9h3 M14,45.6h3 M70.2,45.4h3 M14,54.6h3 M70.2,54.4h3"/>
		<g transform="translate(51 14.555)">
			<path class="st0" d="M10.3,1.9l4.4,7.7h-14l4.4-7.7l0,0c0.8-1.4,2.7-1.9,4.1-1.1C9.7,1,10.1,1.4,10.3,1.9z"/>
			<path class="st8" d="M8.6,6.5l1.8,3.1H5.1l1.8-3.1l0,0C7.1,6,7.7,5.8,8.2,6.1C8.4,6.2,8.5,6.3,8.6,6.5z"/>
		</g>
		<g transform="translate(22 14.555)">
			<path class="st0" d="M10.3,1.9l4.4,7.7h-14l4.4-7.7l0,0c0.8-1.4,2.7-1.9,4.1-1.1C9.7,1,10.1,1.4,10.3,1.9z"/>
			<path class="st8" d="M8.6,6.5l1.8,3.1H5.1l1.8-3.1l0,0C7.1,6,7.7,5.8,8.2,6.1C8.4,6.2,8.5,6.3,8.6,6.5z"/>
		</g>
		<path class="st0" d="M90.5,72.6c8.6,0.2,12.6-4.7,15.2-10.9s9.7-2.4,6.7,4s-10.6,14.9-21.9,14.7C90.5,72.6,90.5,78.5,90.5,72.6z"
			/>
		<rect x="55" y="87.6" class="st1" width="8" height="3"/>
		<g transform="translate(90 58.555)">
			<g>
				<path id="image-cat-set-a_1_" class="st0" d="M0.5,14.1c8.6,0.2,12.6-4.7,15.2-10.9s9.7-2.4,6.7,4S11.8,22,0.5,21.9
					C0.5,14.1,0.5,19.9,0.5,14.1z"/>
			</g>
			<defs>
				<filter id="Adobe_OpacityMaskFilter" filterUnits="userSpaceOnUse" x="0.5" y="13.6" width="3.4" height="8.5">
					<feColorMatrix  type="matrix" values="1 0 0 0 0  0 1 0 0 0  0 0 1 0 0  0 0 0 1 0"/>
				</filter>
			</defs>
			<mask maskUnits="userSpaceOnUse" x="0.5" y="13.6" width="3.4" height="8.5" id="image-cat-set-b_1_">
				<g class="st9">
					<path id="image-cat-set-a_2_" class="st5" d="M0.5,14.1c8.6,0.2,12.6-4.7,15.2-10.9s9.7-2.4,6.7,4S11.8,22,0.5,21.9
						C0.5,14.1,0.5,19.9,0.5,14.1z"/>
				</g>
			</mask>
			<rect x="0.5" y="13.6" class="st10" width="3.4" height="8.5"/>
		</g>
		<path class="st0" d="M102.2,45.7c1.3,1.8,0.8,4.3-1,5.6l-12.1,8.5l-4.6-6.6l12.1-8.5C98.4,43.5,100.9,43.9,102.2,45.7z"/>
		<g transform="translate(48.5 .555)">
			<g>
				<g transform="translate(3.25 2.25)">
					<ellipse class="st11" cx="8.2" cy="5.2" rx="2.2" ry="1.5"/>
					<ellipse class="st11" cx="5.2" cy="2.2" rx="1.5" ry="2.2"/>
					<ellipse class="st11" cx="2.2" cy="5.2" rx="2.2" ry="1.5"/>
					<ellipse class="st11" cx="5.2" cy="8.2" rx="1.5" ry="2.2"/>
				</g>
				<g transform="rotate(45 4.159 10.298)">
					<ellipse transform="matrix(2.535182e-06 1 -1 2.535182e-06 13.5 -3)" class="st11" cx="8.2" cy="5.2" rx="1.5" ry="2.2"/>
					<ellipse transform="matrix(2.535182e-06 1 -1 2.535182e-06 7.5 -3)" class="st11" cx="5.2" cy="2.2" rx="2.2" ry="1.5"/>
					<ellipse transform="matrix(2.535182e-06 1 -1 2.535182e-06 7.5 3)" class="st11" cx="2.2" cy="5.2" rx="1.5" ry="2.2"/>
					<ellipse transform="matrix(2.535182e-06 1 -1 2.535182e-06 13.5 3)" class="st11" cx="5.2" cy="8.2" rx="2.2" ry="1.5"/>
				</g>
			</g>
			<path class="st12" d="M8.5,9C7.7,9,7,8.3,7,7.5S7.7,6,8.5,6C9.3,6,10,6.7,10,7.5S9.3,9,8.5,9"/>
		</g>
		<path class="st13" d="M12,69.6h63.9v14.7l0,0c0,2.2-1.8,4-4,4H16l0,0c-2.2,0-4-1.8-4-4V69.6z"/>
	</g>
	<g transform="translate(467 9)">
		<path class="st14" d="M18.8,12c1.9-3.1,1.5-7.3-1.4-9.8c0,0-0.1-0.1-0.1-0.2C14.1-0.7,9.2-0.4,6.5,2.8s-2.3,8,0.8,10.8l-1.1,1.2
			l5.7,5l0.1-0.1l3,2.6l1.1-1.2c2.2,2,5.6,1.8,7.6-0.5l3.5-4l-4-3.5C22,12.1,20.4,11.7,18.8,12z"/>
		<path class="st15" d="M3.2,13.3c0.8-0.4,1.7-0.3,2.4,0.3l8.1,7.1c0.8,0.7,2.2,3.3,1.4,4c-0.8,0.7-3.4-0.6-4.2-1.3l-8.1-7.1
			c-0.5-0.5-0.7-1.2-0.5-1.8l-1.7-0.7c-0.2-0.1-0.4-0.4-0.2-0.6s0.4-0.4,0.7-0.2l1.2,0.5l-0.6-1.5c-0.1-0.2,0-0.5,0.2-0.6
			s0.5,0,0.6,0.2L3.2,13.3z"/>
		<path class="st16" d="M14,14.8l1.8-2c0.1-0.1,0.1-0.2,0.2-0.4c2.6-3.3,2.1-8.1-1.2-10.6C11.7-0.5,7.4-0.3,4.6,2.5
			c-0.1,0-0.1,0.1-0.2,0.2c-2.7,3.2-2.5,8,0.7,10.8c-0.6,0.6-0.5,1.5,0.1,2.1l4.6,4l0,0l3.4,3c0.4,0.2,0.9,0.2,1.2-0.1
			c0.2-0.4,0.7-0.4,1.1-0.1c2.2,1.4,5.3,1.1,7-0.9l3-3.4l0.1-0.1c0.2-0.4,0.2-0.8-0.1-1.1l-2.8-2.5C20.1,12.3,16.4,12.5,14,14.8z"/>
		<path class="st11" d="M8.8,9.4c0.9,0.9,2.5,0.8,3.3-0.1C13,8.4,12.9,6.9,11.9,6C11,5.2,9.5,5.2,8.6,6.2c0,0,0,0.1-0.1,0.1
			C7.7,7.2,7.8,8.6,8.8,9.4"/>
	</g>
	<g transform="translate(178.328 54)">
		<path class="st17" d="M3.9,38.1c-5.2-1.7-5.2-4.2,0-5.9l41.8-13.4c6.1-1.7,12.4-1.7,18.6,0L106,32.2c5.2,1.7,5.2,4.2,0,5.9
			L64.3,51.4c-5.9,1.7-12.4,1.7-18.6,0L3.9,38.1z"/>
		<path class="st18" d="M109.9,17.6v10.9c0,1.1-1.3,2.3-3.9,3L64.3,45.3c-6.1,1.7-12.4,1.7-18.6,0L3.9,31.5c-2.6-0.8-3.9-1.9-3.9-3
			V17.6c0.2,0.9,1.5,1.9,3.7,2.6L45.5,34c6.1,1.7,12.4,1.7,18.6,0l41.8-13.8c2.2-0.8,3.5-1.7,3.7-2.6H109.9z"/>
		<path class="st18" d="M109.9,35.1v10.9c0,1.1-1.3,2.3-3.9,3L64.3,62.9c-6.1,1.7-12.4,1.7-18.6,0L3.9,49.1c-2.6-0.8-3.9-1.9-3.9-3
			V35.1c0.2,0.9,1.5,1.9,3.7,2.6l41.8,13.8c6.1,1.7,12.4,1.7,18.6,0l41.8-13.8c2.2-0.8,3.5-1.7,3.7-2.6H109.9z"/>
		<path class="st17" d="M3.9,20.5c-5.2-1.7-5.2-4.2,0-5.9L45.7,1.2c6.1-1.7,12.4-1.7,18.6,0L106,14.6c5.2,1.7,5.2,4.2,0,5.9
			L64.3,33.9c-5.9,1.7-12.4,1.7-18.6,0L3.9,20.5z"/>
		<g>
			<g class="st19">
				<ellipse id="image-cat-set-d_2_" cx="7" cy="44.4" rx="2" ry="2"/>
			</g>
			<g>
				<ellipse id="image-cat-set-d_1_" class="st13" cx="7" cy="44.4" rx="2" ry="2"/>
			</g>
		</g>
		<g>
			<g class="st20">
				<ellipse id="image-cat-set-f_2_" cx="7" cy="27.6" rx="2" ry="2"/>
			</g>
			<g>
				<ellipse id="image-cat-set-f_1_" class="st13" cx="7" cy="27.6" rx="2" ry="2"/>
			</g>
		</g>
	</g>
	<g transform="translate(.57 39.551)">
		<g transform="translate(0 29.585)">
			<g transform="translate(0 3.021)">
				<defs>
					<filter id="Adobe_OpacityMaskFilter_1_" filterUnits="userSpaceOnUse" x="0" y="0.2" width="44.4" height="38.2">
						<feColorMatrix  type="matrix" values="1 0 0 0 0  0 1 0 0 0  0 0 1 0 0  0 0 0 1 0"/>
					</filter>
				</defs>
				<mask maskUnits="userSpaceOnUse" x="0" y="0.2" width="44.4" height="38.2" id="image-cat-set-h_1_">
					<g class="st21">
						<polygon id="image-cat-set-g_1_" class="st5" points="0,38.4 44.4,38.4 44.4,0.2 0,0.2 						"/>
					</g>
				</mask>
				<path class="st22" d="M44.4,0.2v33.3c0,2.7-2.2,4.9-4.9,4.9H4.9c-2.7,0-4.9-2.2-4.9-4.9V0.2h2.4v0.3c0,0.6,1,1.2,2.2,1.2h35
					c1.2,0,2.2-0.5,2.2-1.2V0.2H44.4z"/>
			</g>
			<path class="st23" d="M41.8,3.2v0.4c0,0.8-1,1.5-2.2,1.5h-35c-1.2,0-2.2-0.7-2.2-1.5V3.2H41.8z"/>
			<path class="st24" d="M41.8,2.8v0.8c0,0.6-1,1.2-2.2,1.2h-35c-1.2,0-2.2-0.5-2.2-1.2V2.8c0-0.6,1-1.2,2.2-1.2h35
				C40.8,1.6,41.8,2.1,41.8,2.8"/>
			<path class="st23" d="M41.8,2.8v0.8c0,0.6-1,1.2-2.2,1.2h-35c-1.2,0-2.2-0.5-2.2-1.2V2.8c0-0.6,1-1.2,2.2-1.2h35
				C40.8,1.6,41.8,2.1,41.8,2.8"/>
			<defs>
				<filter id="Adobe_OpacityMaskFilter_2_" filterUnits="userSpaceOnUse" x="0" y="0.1" width="44.4" height="6.5">
					<feColorMatrix  type="matrix" values="1 0 0 0 0  0 1 0 0 0  0 0 1 0 0  0 0 0 1 0"/>
				</filter>
			</defs>
			<mask maskUnits="userSpaceOnUse" x="0" y="0.1" width="44.4" height="6.5" id="image-cat-set-j_1_">
				<g class="st25">
					<polygon id="image-cat-set-i_1_" class="st5" points="44.4,6.6 44.4,0.1 0,0.1 0,6.6 					"/>
				</g>
			</mask>
			<path class="st26" d="M41.8,3.5c0,0.6-1,1.2-2.2,1.2h-35c-1.2,0-2.2-0.5-2.2-1.2V2.8c0-0.6,1-1.2,2.2-1.2h35
				c1.2,0,2.2,0.5,2.2,1.2V3.5z M41.9,0.1H2.5C1.1,0.1,0,1.2,0,2.5v1.6c0,1.4,1.1,2.5,2.5,2.5h39.4c1.4,0,2.5-1.1,2.5-2.5V2.5
				C44.4,1.2,43.3,0.1,41.9,0.1L41.9,0.1z"/>
		</g>
		<polygon class="st27" points="3,58.8 41.4,58.8 41.4,46.1 3,46.1 		"/>
		<g transform="translate(2.623 27.427)">
			<path class="st28" d="M37.9,40.9H1.3c-0.5,0-0.9-0.4-0.9-0.9v-9h38.4v9C38.8,40.5,38.4,40.9,37.9,40.9"/>
			<path class="st29" d="M14.9,0.1L14.9,0.1"/>
			<path class="st30" d="M37.9,22.1H1.3c-0.5,0-0.9-0.4-0.9-0.9v-5c0-0.5,0.4-0.9,0.9-0.9h36.6c0.5,0,0.9,0.4,0.9,0.9v5
				C38.8,21.7,38.4,22.1,37.9,22.1"/>
		</g>
		<g transform="translate(0 .238)">
			<path class="st31" d="M36.1,35.1c-1.3,0.5-2.8,0.8-4.3,0.8c-6.7,0-12.1-5.5-12.1-12.2c0-6.7,5.4-12.2,12.1-12.2
				c0.8,0,1.6,0.1,2.4,0.2C24.6,13.5,17.4,33.4,36.1,35.1"/>
			<path class="st32" d="M43.9,23.7c0,5.2-3.2,9.6-7.8,11.4c-18.7-1.7-11.6-21.6-1.9-23.3C39.8,12.9,43.9,17.9,43.9,23.7"/>
			<path class="st31" d="M28,23.8c-1.3,0.5-2.8,0.8-4.3,0.8c-6.7,0-12.1-5.5-12.1-12.2c0-6.7,5.4-12.2,12.1-12.2
				c0.8,0,1.6,0.1,2.4,0.2C16.4,2.2,9.2,22.1,28,23.8"/>
			<path class="st32" d="M35.8,12.4c0,5.2-3.2,9.6-7.8,11.4C9.2,22.1,16.4,2.2,26.1,0.4C31.6,1.6,35.8,6.5,35.8,12.4"/>
			<path class="st31" d="M18.4,35.1c-1.3,0.5-2.8,0.8-4.3,0.8C7.4,35.9,2,30.5,2,23.7C2,17,7.4,11.6,14.1,11.6
				c0.8,0,1.6,0.1,2.4,0.2C6.8,13.5-0.4,33.4,18.4,35.1"/>
			<path class="st32" d="M26.2,23.7c0,5.2-3.2,9.6-7.8,11.4c-18.7-1.7-11.6-21.6-1.9-23.3C22,12.9,26.2,17.9,26.2,23.7"/>
			<path class="st33" d="M26.7,22.7c-0.6-0.6-1.5-0.6-2.1,0l-0.4,0.4v-2.3c0-0.8-0.7-1.5-1.5-1.5c-0.8,0-1.5,0.7-1.5,1.5v5.3
				l-0.4-0.4c-0.6-0.6-1.5-0.6-2.1,0s-0.6,1.5,0,2.1l2.5,2.5v14.1h3v-17l2.5-2.5C27.3,24.2,27.3,23.3,26.7,22.7"/>
			<g transform="translate(0 32.368)" class="st34">
				<defs>
					<filter id="Adobe_OpacityMaskFilter_3_" filterUnits="userSpaceOnUse" x="0" y="0.2" width="44.4" height="3.3">
						<feColorMatrix  type="matrix" values="1 0 0 0 0  0 1 0 0 0  0 0 1 0 0  0 0 0 1 0"/>
					</filter>
				</defs>
				<mask maskUnits="userSpaceOnUse" x="0" y="0.2" width="44.4" height="3.3" id="image-cat-set-l_1_">
					<g class="st35">
						<polygon id="image-cat-set-k_1_" class="st5" points="0,0.2 0,3.6 44.4,3.6 44.4,0.2 						"/>
					</g>
				</mask>
				<path class="st36" d="M44.4,0.2v0.9c0,1.4-1.1,2.5-2.5,2.5H2.5C1.1,3.6,0,2.5,0,1.1V0.2h2.4v0.3c0,0.6,1,1.2,2.2,1.2h35
					c1.2,0,2.2-0.5,2.2-1.2V0.2H44.4z"/>
			</g>
			<path class="st27" d="M18.7,45.9h7.9c0-0.8-0.7-1.5-1.5-1.5c-0.2,0-0.3,0-0.4,0.1c-0.4-0.6-1.2-1.1-2-1.1c-0.8,0-1.6,0.4-2,1.1
				c-0.1,0-0.3-0.1-0.4-0.1C19.3,44.5,18.7,45.1,18.7,45.9"/>
		</g>
	</g>
</g>
</svg>
